<svg xmlns="http://www.w3.org/2000/svg" viewBox="0 0 1200 750" role="img" aria-labelledby="title desc">
  <title id="title">BMW sportive</title>
  <desc id="desc">Illustration originale d'une berline sportive noire avec ambiance nuit urbaine.</desc>
  <defs>
    <linearGradient id="city" x1="0" y1="0" x2="0" y2="1">
      <stop offset="0%" stop-color="#060b17"/>
      <stop offset="100%" stop-color="#1f2a4d"/>
    </linearGradient>
    <linearGradient id="car" x1="0" y1="0" x2="1" y2="1">
      <stop offset="0%" stop-color="#11151c"/>
      <stop offset="100%" stop-color="#394352"/>
    </linearGradient>
  </defs>
  <rect width="1200" height="750" fill="url(#city)"/>
  <g opacity=".28" fill="#8fb8ff">
    <rect x="120" y="160" width="90" height="190"/>
    <rect x="235" y="110" width="105" height="240"/>
    <rect x="365" y="185" width="80" height="165"/>
    <rect x="780" y="145" width="100" height="205"/>
    <rect x="900" y="95" width="130" height="255"/>
  </g>
  <rect y="500" width="1200" height="250" fill="#0f1218"/>
  <ellipse cx="600" cy="604" rx="320" ry="38" fill="#000" opacity=".42"/>
  <path d="M244 495c24-67 69-118 135-154 61-34 142-50 242-50 127 0 228 26 301 77 41 29 71 71 90 127l39 16c20 8 30 20 30 38v28H214v-17c0-31 10-52 30-65z" fill="url(#car)"/>
  <path d="M388 355h334c79 0 149 35 207 103H338c19-39 36-65 50-78z" fill="#1d2530"/>
  <path d="M434 368h133l28 80H390c13-28 28-55 44-80z" fill="#b9d7f4"/>
  <path d="M592 368h143c45 0 87 16 125 48l45 32H619z" fill="#a4c9e7"/>
  <path d="M497 447h49v46h-49c-14 0-22-6-22-18v-11c0-11 8-17 22-17z" fill="#0d1117"/>
  <path d="M557 447h49v46h-49z" fill="#0d1117"/>
  <circle cx="422" cy="571" r="63" fill="#090a0c"/>
  <circle cx="422" cy="571" r="29" fill="#b8bdc6"/>
  <circle cx="812" cy="571" r="63" fill="#090a0c"/>
  <circle cx="812" cy="571" r="29" fill="#b8bdc6"/>
  <rect x="331" y="453" width="38" height="11" rx="5.5" fill="#f7f2c2"/>
  <rect x="878" y="455" width="38" height="11" rx="5.5" fill="#ff655a"/>
</svg>
