<svg xmlns="http://www.w3.org/2000/svg" viewBox="0 0 1200 750" role="img" aria-labelledby="title desc">
  <title id="title">Hyundai compacte</title>
  <desc id="desc">Illustration originale d'une Hyundai compacte argentée devant une ville moderne.</desc>
  <defs>
    <linearGradient id="bg" x1="0" y1="0" x2="1" y2="1">
      <stop offset="0%" stop-color="#1a2236"/>
      <stop offset="100%" stop-color="#64748d"/>
    </linearGradient>
    <linearGradient id="body" x1="0" y1="0" x2="1" y2="1">
      <stop offset="0%" stop-color="#f1f4f7"/>
      <stop offset="100%" stop-color="#8b97a6"/>
    </linearGradient>
  </defs>
  <rect width="1200" height="750" fill="url(#bg)"/>
  <g opacity=".2" fill="#eef4ff">
    <rect x="135" y="132" width="95" height="218"/>
    <rect x="260" y="188" width="75" height="162"/>
    <rect x="803" y="126" width="110" height="224"/>
    <rect x="944" y="165" width="90" height="185"/>
  </g>
  <rect y="500" width="1200" height="250" fill="#202835"/>
  <ellipse cx="600" cy="606" rx="314" ry="38" fill="#091017" opacity=".32"/>
  <path d="M266 498c20-68 61-119 123-152 55-30 129-45 223-45 120 0 213 23 279 69 39 27 68 68 86 122l40 15c18 7 27 18 27 33v27H228v-20c0-24 13-40 38-49z" fill="url(#body)"/>
  <path d="M393 369h321c72 0 136 31 190 91H352c9-18 23-39 41-61z" fill="#a8b2be"/>
  <path d="M433 381h129l34 67H394c11-22 24-44 39-67z" fill="#cbe5f2"/>
  <path d="M592 381h136c43 0 81 15 116 45l44 22H620z" fill="#bfdcea"/>
  <path d="M523 454h126" stroke="#a0aab5" stroke-width="7" stroke-linecap="round" opacity=".7"/>
  <circle cx="425" cy="571" r="59" fill="#111214"/>
  <circle cx="425" cy="571" r="27" fill="#c2c8cf"/>
  <circle cx="808" cy="571" r="59" fill="#111214"/>
  <circle cx="808" cy="571" r="27" fill="#c2c8cf"/>
  <rect x="342" y="456" width="35" height="11" rx="5.5" fill="#faf3c7"/>
  <rect x="862" y="457" width="33" height="11" rx="5.5" fill="#ff7066"/>
</svg>
