<svg xmlns="http://www.w3.org/2000/svg" viewBox="0 0 1200 750" role="img" aria-labelledby="title desc">
  <title id="title">KIA SUV moderne</title>
  <desc id="desc">Illustration originale d'un SUV KIA au style moderne.</desc>
  <defs>
    <linearGradient id="bg" x1="0" y1="0" x2="1" y2="1">
      <stop offset="0%" stop-color="#102d22"/>
      <stop offset="100%" stop-color="#4b8f66"/>
    </linearGradient>
    <linearGradient id="car" x1="0" y1="0" x2="1" y2="1">
      <stop offset="0%" stop-color="#cfd5da"/>
      <stop offset="100%" stop-color="#6b7279"/>
    </linearGradient>
  </defs>
  <rect width="1200" height="750" fill="url(#bg)"/>
  <circle cx="950" cy="110" r="70" fill="#f2f4d6" opacity=".85"/>
  <rect y="500" width="1200" height="250" fill="#243b31"/>
  <ellipse cx="602" cy="604" rx="345" ry="42" fill="#0e1511" opacity=".28"/>
  <path d="M247 494c25-75 70-131 137-167 60-33 142-49 248-49 130 0 233 25 309 74 42 28 74 73 95 136l36 15c20 8 30 20 30 38v29H212v-26c0-19 12-36 35-50z" fill="url(#car)"/>
  <path d="M376 349h361c91 0 160 36 210 109H337c9-25 22-47 39-67z" fill="#7f8991"/>
  <path d="M424 366h133l37 82H386l18-37c8-16 21-31 38-45z" fill="#c7e4f2"/>
  <path d="M595 366h144c51 0 96 18 135 55l33 27H621z" fill="#bfdde9"/>
  <rect x="333" y="455" width="43" height="12" rx="6" fill="#f5f1cd"/>
  <path d="M843 447h68c12 0 22 7 22 15v10c0 9-10 15-22 15h-68z" fill="#ff6f61"/>
  <circle cx="428" cy="570" r="66" fill="#111"/>
  <circle cx="428" cy="570" r="32" fill="#c0c6cc"/>
  <circle cx="820" cy="570" r="66" fill="#111"/>
  <circle cx="820" cy="570" r="32" fill="#c0c6cc"/>
  <path d="M589 438h70" stroke="#3b434c" stroke-width="8" stroke-linecap="round"/>
</svg>
