<svg xmlns="http://www.w3.org/2000/svg" viewBox="0 0 1200 750" role="img" aria-labelledby="title desc">
  <title id="title">Range Rover premium</title>
  <desc id="desc">Illustration originale d'un SUV premium sur fond coucher de soleil.</desc>
  <defs>
    <linearGradient id="sky" x1="0" y1="0" x2="0" y2="1">
      <stop offset="0%" stop-color="#241634"/>
      <stop offset="55%" stop-color="#9d4d38"/>
      <stop offset="100%" stop-color="#f3bb76"/>
    </linearGradient>
    <linearGradient id="body" x1="0" y1="0" x2="1" y2="1">
      <stop offset="0%" stop-color="#0f1116"/>
      <stop offset="100%" stop-color="#4e5563"/>
    </linearGradient>
    <linearGradient id="glass" x1="0" y1="0" x2="1" y2="1">
      <stop offset="0%" stop-color="#dff7ff" stop-opacity=".95"/>
      <stop offset="100%" stop-color="#4e7da1" stop-opacity=".85"/>
    </linearGradient>
  </defs>
  <rect width="1200" height="750" fill="url(#sky)"/>
  <rect y="470" width="1200" height="280" fill="#1b1619"/>
  <ellipse cx="600" cy="590" rx="360" ry="55" fill="#000" opacity=".25"/>
  <path d="M250 475c25-85 80-145 165-175 58-20 137-31 242-31 143 0 251 28 323 83 35 27 60 66 75 123l40 15c25 10 37 22 37 48v33H178v-39c0-24 10-42 31-52z" fill="url(#body)"/>
  <path d="M387 305h359c64 0 133 24 180 76l32 35H337l25-47c9-18 26-41 50-64z" fill="#1f2630"/>
  <path d="M438 320h124l44 94H382l21-43c10-20 23-36 35-51z" fill="url(#glass)"/>
  <path d="M590 320h136c50 0 104 19 140 53l42 41H653z" fill="url(#glass)"/>
  <rect x="350" y="434" width="43" height="12" rx="6" fill="#f7d57a"/>
  <rect x="871" y="434" width="48" height="12" rx="6" fill="#ff8a65"/>
  <rect x="460" y="445" width="180" height="7" rx="3.5" fill="#8992a0" opacity=".5"/>
  <circle cx="422" cy="559" r="73" fill="#141414"/>
  <circle cx="422" cy="559" r="38" fill="#9ba3af"/>
  <circle cx="815" cy="559" r="73" fill="#141414"/>
  <circle cx="815" cy="559" r="38" fill="#9ba3af"/>
  <rect x="0" y="0" width="1200" height="750" fill="#000" opacity=".08"/>
</svg>
